<svg id="Layer_1" data-name="Layer 1" xmlns="http://www.w3.org/2000/svg" viewBox="0 0 27 27"><title>news_icon</title><path d="M17.638,11.138V7.295a1.29,1.29,0,0,0-1.281-1.281c-1.922,1.6-5.125,3.844-8.969,3.844h-4.8a1.606,1.606,0,0,0-1.6,1.6v1.922a1.606,1.606,0,0,0,1.6,1.6H3.8c-.7,2.252.16,4.034.741,5.815.921.851,3.5.831,4.124-.39-1.061-.831-1.962-1.642-1.261-2.792a1.6,1.6,0,0,1,.821-2.593c3.474.29,6.346,2.322,8.128,3.8a1.29,1.29,0,0,0,1.281-1.281V13.7a1.281,1.281,0,0,0,0-2.562Zm-1.281,6.046a15.483,15.483,0,0,0-7.687-3.413v-2.7a15.528,15.528,0,0,0,7.687-3.433Z" fill="#fff"/><path d="M25.368,11.682H20.587a.65.65,0,1,0,0,1.3h4.781a.65.65,0,1,0,0-1.3Z" fill="#fff"/><path d="M19.867,10.47a.649.649,0,0,0,.46-.19l3.558-3.557a.65.65,0,1,0-.92-.919L19.407,9.36a.65.65,0,0,0,.46,1.109Z" fill="#fff"/><path d="M20.327,14.384a.65.65,0,0,0-.92.919l3.558,3.557a.65.65,0,0,0,.92-.919Z" fill="#fff"/></svg>